<?xml version="1.0" encoding="UTF-8"?>
<svg width="1024px" height="1024px" viewBox="0 0 1024 1024" version="1.1" xmlns="http://www.w3.org/2000/svg" xmlns:xlink="http://www.w3.org/1999/xlink">
    <!-- Generator: Sketch 52.2 (67145) - http://www.bohemiancoding.com/sketch -->
    <title>Stripe</title>
    <desc>Created with Sketch.</desc>
    <g id="Stripe" stroke="none" stroke-width="1" fill="none" fill-rule="evenodd">
        <path d="M0,513 C0,930.495059 3.94377067,1024 511,1024 C1018.05623,1024 1022,930.495059 1022,513 C1022,95.5049407 1018.05623,2 511,2 C3.94377067,2 0,95.5049407 0,513 Z" id="background" fill="#646EDE" fill-rule="nonzero"></path>
        <path d="M623.571776,485.813195 C607.142071,473.908499 587.981667,465.593386 569.913543,456.051454 C555.895955,448.554221 540.330971,443.283439 527.951803,433.741507 C521.216079,428.652476 515.845704,416.020775 517.12003,407.887414 C518.257821,401.02631 528.953059,392.711197 536.917597,390.62106 C547.885905,387.667604 560.492631,388.485484 572.007078,390.166682 C600.360836,394.437833 628.441523,400.072117 657.705513,405.433774 C657.705513,371.037379 657.250396,336.186607 657.978583,301.335834 C658.206141,291.248649 654.610721,287.022936 645.417368,284.06948 C588.07269,265.667182 529.635734,260.441838 470.561614,272.482848 C415.082914,283.751416 372.802592,312.150025 356.600445,369.855997 C353.14156,381.987883 351.503141,394.710459 349,407.069534 C349,416.338839 349,425.562708 349,434.786576 C349.955745,438.239846 351.366606,441.602242 351.821722,445.055512 C356.645957,482.223611 374.349988,512.076229 404.706258,533.522858 C420.134707,544.29161 437.61118,552.288658 454.268443,561.2399 C468.650124,569.055197 483.759992,575.825425 497.595533,584.413164 C508.063212,590.956204 513.342563,603.042651 507.653607,613.856841 C503.603071,621.581263 493.590508,629.8055 485.216364,630.986882 C469.287287,633.304209 452.356954,632.577204 436.291342,630.032689 C410.304191,626.079603 384.681133,619.536563 357.510678,613.947717 C357.510678,652.842451 357.146585,690.328614 358.011306,727.633027 C358.10233,731.358924 364.74703,737.129521 369.343707,738.310903 C422.637848,753.305369 476.614663,760.666288 532.275409,755.577257 C618.019355,747.807398 665.806586,703.27838 674.726869,618.309743 C680.233779,566.010866 668.719332,518.619268 623.571776,485.813195 Z" id="Path" fill="#FFFFFF"></path>
    </g>
</svg>