<?xml version="1.0" encoding="UTF-8"?>
<svg width="482px" height="481px" viewBox="0 0 482 481" version="1.1" xmlns="http://www.w3.org/2000/svg" xmlns:xlink="http://www.w3.org/1999/xlink">
    <!-- Generator: Sketch 52.2 (67145) - http://www.bohemiancoding.com/sketch -->
    <title>Stripe Mask</title>
    <desc>Created with Sketch.</desc>
    <g id="Stripe-Mask" stroke="none" stroke-width="1" fill="none" fill-rule="evenodd">
        <path d="M347.81641,215.402233 C332.090117,204.007217 313.750036,196.048103 296.45547,186.914694 C283.038024,179.738444 268.139431,174.693323 256.290257,165.559913 C249.842913,160.688762 244.702463,148.597867 245.922231,140.812723 C247.011309,134.245367 257.248647,126.286253 264.872196,124.285601 C275.370912,121.458594 287.437901,122.241457 298.459375,123.850677 C325.59921,127.938965 352.477666,133.332026 380.488763,138.464132 C380.488763,105.540366 380.053132,72.1816756 380.750142,38.8229852 C380.967958,29.1676668 377.52647,25.1228712 368.726716,22.2958635 C313.837162,4.6814312 257.902094,-0.320197732 201.357141,11.205295 C148.253676,21.9914166 107.783521,49.1741825 92.275044,104.409563 C88.9642455,116.022041 87.3959726,128.19992 85,140.029859 C85,148.902314 85,157.731277 85,166.560239 C85.9148259,169.865663 87.2652832,173.084103 87.7009145,176.389527 C92.3186071,211.966331 109.264668,240.540855 138.321281,261.06928 C153.089184,271.376984 169.817429,279.031651 185.761538,287.599659 C199.527489,295.080356 213.990451,301.560728 227.233645,309.780796 C237.253166,316.043706 242.30649,327.612691 236.861098,337.963888 C232.983979,345.3576 223.400089,353.229729 215.384471,354.360532 C200.137373,356.578646 183.931886,355.882767 168.554098,353.447191 C143.679546,349.66335 119.1535,343.400441 93.1463068,338.050873 C93.1463068,375.280389 92.7978017,411.16164 93.6255013,446.868921 C93.7126275,450.4353 100.072846,455.958838 104.472723,457.089641 C155.485157,471.442142 207.151038,478.487915 260.428756,473.616763 C342.501707,466.179558 388.243002,423.556981 396.781377,342.226146 C402.052516,292.166364 391.031042,246.803764 347.81641,215.402233 Z" id="Path" fill="#000000"></path>
    </g>
</svg>